# This file uses centimeters as units for non-parametric coordinates.

mtllib Pes Card.mtl
g default
v 15.467514 9.862279 -0.220008
v 15.010655 10.049523 -0.220008
v 12.109209 10.050575 -0.220008
v 15.696895 9.464421 -0.220008
v 15.010655 9.464421 -0.220008
v 12.109099 9.465473 -0.220008
v 15.696895 5.050553 -0.220008
v 15.010655 5.050553 -0.220008
v 12.108267 5.051605 -0.220008
v 15.467514 0.238827 -0.220008
v 15.010655 0.051583 -0.220008
v 12.107325 0.052635 -0.220008
v 15.696895 0.636685 -0.220008
v 15.010655 0.636685 -0.220008
v 12.107436 0.637737 -0.220008
v 8.750833 9.865742 -0.220008
v 9.207763 10.052801 -0.220008
v 8.521303 9.467977 -0.220008
v 9.207543 9.467699 -0.220008
v 8.519640 5.054110 -0.220008
v 9.205879 5.053832 -0.220008
v 8.747207 0.242291 -0.220008
v 9.203995 0.054862 -0.220008
v 8.517976 0.640242 -0.220008
v 9.204216 0.639964 -0.220008
v 15.010655 10.049523 -0.048940
v 15.010655 9.464421 -0.048940
v 15.696895 9.464421 -0.048940
v 15.467514 9.862279 -0.048940
v 12.109209 10.050575 -0.048940
v 12.109099 9.465473 -0.048940
v 15.010655 5.050553 -0.048940
v 15.696895 5.050553 -0.048940
v 12.108267 5.051605 -0.048940
v 15.010655 0.051583 -0.048940
v 15.467514 0.238827 -0.048940
v 15.696895 0.636685 -0.048940
v 15.010655 0.636685 -0.048940
v 12.107325 0.052635 -0.048940
v 12.107436 0.637737 -0.048940
v 9.207763 10.052801 -0.048940
v 8.750833 9.865742 -0.048940
v 8.521303 9.467977 -0.048940
v 9.207543 9.467699 -0.048940
v 8.519640 5.054110 -0.048940
v 9.205879 5.053832 -0.048940
v 9.203995 0.054862 -0.048940
v 9.204216 0.639964 -0.048940
v 8.517976 0.640242 -0.048940
v 8.747207 0.242291 -0.048940
vt 0.078609 0.589673
vt 0.467556 0.874201
vt 0.504382 0.874095
vt 0.078858 0.603209
vt 0.077147 0.510125
vt 0.311816 0.874664
vt 0.466939 0.637289
vt 0.503764 0.637194
vt 0.311159 0.637755
vt 0.466220 0.368973
vt 0.083770 0.870417
vt 0.083538 0.857826
vt 0.466322 0.400378
vt 0.310401 0.369441
vt 0.310482 0.400844
vt 0.156174 0.906592
vt 0.075436 0.417041
vt 0.075204 0.404450
vt 0.156073 0.875187
vt 0.072980 0.283437
vt 0.155375 0.638285
vt 0.070276 0.136296
vt 0.154658 0.401372
vt 0.117831 0.401487
vt 0.070524 0.149833
vt 0.073919 0.589759
vt 0.074168 0.603295
vt 0.074399 0.615886
vt 0.603509 0.866607
vt 0.072457 0.510211
vt 0.758728 0.867141
vt 0.076624 0.736899
vt 0.604229 0.630484
vt 0.759494 0.631018
vt 0.079328 0.884040
vt 0.604958 0.394348
vt 0.078848 0.857913
vt 0.079080 0.870503
vt 0.080792 0.963639
vt 0.760257 0.394889
vt 0.070995 0.430664
vt 0.913959 0.867730
vt 0.070514 0.404536
vt 0.070746 0.417127
vt 0.914781 0.631595
vt 0.068290 0.283523
vt 0.065585 0.136382
vt 0.065834 0.149919
vt 0.066066 0.162510
vt 0.915580 0.395479
vt 0.070756 0.162424
vt 0.118529 0.638389
vt 0.085482 0.963553
vt 0.154557 0.369966
vt 0.130068 0.380094
vt 0.119246 0.875302
vt 0.311898 0.906068
vt 0.075685 0.430577
vt 0.131621 0.896620
vt 0.503147 0.400282
vt 0.081314 0.736813
vt 0.084019 0.883954
vt 0.490773 0.378959
vt 0.079089 0.615800
vt 0.467637 0.905605
vt 0.492126 0.895492
vt 0.952282 0.395609
vt 0.951488 0.631738
vt 0.760362 0.363586
vt 0.915685 0.364176
vt 0.940095 0.374276
vt 0.950660 0.867861
vt 0.758638 0.898443
vt 0.913857 0.899039
vt 0.938334 0.889096
vt 0.568250 0.394236
vt 0.567521 0.630372
vt 0.605050 0.363052
vt 0.580585 0.372988
vt 0.566801 0.866495
vt 0.603420 0.897910
vt 0.578998 0.887816
vt 0.064122 0.056783
vt 0.068812 0.056697
vn -0.000000 -0.000001 1.000000
vn -0.000000 -0.000000 1.000000
vn -0.000000 -0.000000 1.000000
vn -0.000000 -0.000000 1.000000
vn -0.000000 -0.000001 1.000000
vn -0.000000 -0.000000 1.000000
vn -0.000000 0.000000 1.000000
vn -0.000000 0.000000 1.000000
vn 0.000000 0.000000 1.000000
vn -0.000000 0.000000 1.000000
vn -0.000000 0.000000 1.000000
vn -0.000000 0.000000 1.000000
vn -0.000000 0.000000 1.000000
vn 0.000000 0.000000 1.000000
vn 0.000000 0.000000 1.000000
vn -0.000000 0.000000 1.000000
vn -0.000000 0.000000 1.000000
vn 0.000000 0.000000 1.000000
vn 0.000000 -0.000000 1.000000
vn 0.000000 0.000000 1.000000
vn 0.000000 -0.000000 1.000000
vn 0.000000 -0.000000 1.000000
vn -0.000000 -0.000000 1.000000
vn -0.000000 -0.000000 1.000000
vn 0.000000 -0.000000 1.000000
vn 0.000000 0.000000 1.000000
vn 0.000000 0.000000 1.000000
vn 0.000000 0.000000 1.000000
vn 0.000000 0.000000 1.000000
vn 0.000000 0.000000 1.000000
vn 0.000000 0.000001 1.000000
vn 0.000000 0.000000 1.000000
vn 0.000000 0.000000 1.000000
vn 0.000000 -0.000000 -1.000000
vn 0.000000 -0.000000 -1.000000
vn 0.000000 -0.000000 -1.000000
vn 0.000000 -0.000000 -1.000000
vn 0.000000 -0.000000 -1.000000
vn 0.000000 -0.000000 -1.000000
vn 0.000000 -0.000000 -1.000000
vn 0.000000 -0.000000 -1.000000
vn 0.000000 -0.000000 -1.000000
vn 0.000000 -0.000000 -1.000000
vn 0.000000 -0.000000 -1.000000
vn 0.000000 -0.000000 -1.000000
vn 0.000000 -0.000000 -1.000000
vn 0.000000 -0.000000 -1.000000
vn 0.000000 -0.000000 -1.000000
vn 0.000000 -0.000000 -1.000000
vn 0.000000 -0.000000 -1.000000
vn 0.000000 -0.000000 -1.000000
vn 0.000000 -0.000000 -1.000000
vn 0.000000 -0.000000 -1.000000
vn 0.000000 -0.000000 -1.000000
vn 0.000000 -0.000000 -1.000000
vn 0.000000 -0.000000 -1.000000
vn 0.000000 -0.000000 -1.000000
vn 0.000000 0.000000 -1.000000
vn 0.000000 -0.000000 -1.000000
vn 0.000000 0.000000 -1.000000
vn 0.000000 0.000000 -1.000000
vn 0.000000 -0.000000 -1.000000
vn 0.000000 -0.000000 -1.000000
vn 0.000000 0.000000 -1.000000
vn 0.000000 0.000000 -1.000000
vn 0.000000 0.000000 -1.000000
vn 0.998866 0.047617 0.000000
vn 0.866329 0.499473 0.000000
vn 0.866329 0.499473 0.000000
vn 0.998866 0.047617 0.000000
vn 0.379235 0.925300 0.000000
vn 0.055981 0.998432 0.000000
vn 0.055981 0.998432 0.000000
vn 0.379235 0.925300 0.000000
vn 0.000565 1.000000 0.000000
vn 0.000565 1.000000 0.000000
vn 1.000000 0.000000 0.000000
vn 1.000000 0.000000 0.000000
vn 0.055326 -0.998468 0.000000
vn 0.379235 -0.925300 0.000000
vn 0.379235 -0.925300 0.000000
vn 0.055326 -0.998468 0.000000
vn 0.866330 -0.499473 0.000000
vn 0.998866 -0.047617 0.000000
vn 0.998866 -0.047617 0.000000
vn 0.866330 -0.499473 0.000000
vn -0.000565 -1.000000 0.000000
vn -0.000565 -1.000000 0.000000
vn -0.054954 0.998489 0.000000
vn -0.378865 0.925452 0.000000
vn -0.378865 0.925452 0.000000
vn -0.054954 0.998489 0.000000
vn -0.866137 0.499806 0.000000
vn -0.998848 0.047994 0.000000
vn -0.998848 0.047994 0.000000
vn -0.866137 0.499806 0.000000
vn -1.000000 0.000377 0.000000
vn -1.000000 0.000377 0.000000
vn -0.998884 -0.047241 0.000000
vn -0.866521 -0.499140 0.000000
vn -0.866521 -0.499140 0.000000
vn -0.998884 -0.047241 0.000000
vn -0.379607 -0.925148 0.000000
vn -0.056354 -0.998411 0.000000
vn -0.056354 -0.998411 0.000000
vn -0.379607 -0.925148 0.000000
s 1
g pPlane12
usemtl lambert4SG
f 26/65/1 27/2/2 28/3/3 29/66/4
f 30/57/5 31/6/6 27/2/2 26/65/1
f 28/3/3 27/2/2 32/7/7 33/8/8
f 27/2/2 31/6/6 34/9/9 32/7/7
s 2
f 35/10/10 36/63/11 37/60/12 38/13/13
f 39/14/14 35/10/10 38/13/13 40/15/15
f 37/60/12 33/8/16 32/7/17 38/13/13
f 38/13/13 32/7/17 34/9/18 40/15/15
s 3
f 41/16/19 42/59/20 43/56/21 44/19/22
f 30/57/23 41/16/19 44/19/22 31/6/24
f 43/56/21 45/52/25 46/21/26 44/19/22
f 44/19/22 46/21/26 34/9/27 31/6/24
f 47/54/28 48/23/29 49/24/30 50/55/31
f 39/14/32 40/15/33 48/23/29 47/54/28
f 49/24/30 48/23/29 46/21/26 45/52/25
f 48/23/29 40/15/33 34/9/27 46/21/26
s 5
f 2/81/34 1/82/35 4/80/36 5/29/37
f 3/73/38 2/81/34 5/29/37 6/31/39
f 4/80/36 7/77/40 8/33/41 5/29/37
f 5/29/37 8/33/41 9/34/42 6/31/39
s 6
f 11/78/43 14/36/44 13/76/45 10/79/46
f 12/69/47 15/40/48 14/36/44 11/78/43
f 13/76/45 14/36/44 8/33/49 7/77/50
f 14/36/44 15/40/48 9/34/51 8/33/49
s 7
f 17/74/52 19/42/53 18/72/54 16/75/55
f 3/73/56 6/31/57 19/42/53 17/74/52
f 18/72/54 19/42/53 21/45/58 20/68/59
f 19/42/53 6/31/57 9/34/60 21/45/58
f 23/70/61 22/71/62 24/67/63 25/50/64
f 12/69/65 23/70/61 25/50/64 15/40/66
f 24/67/63 20/68/59 21/45/58 25/50/64
f 25/50/64 21/45/58 9/34/60 15/40/66
s 8
f 4/28/67 1/27/68 29/4/69 28/64/70
s 9
f 1/27/71 2/26/72 26/1/73 29/4/74
f 2/26/72 3/30/75 30/5/76 26/1/73
s 8
f 7/32/77 4/28/67 28/64/70 33/61/78
s 10
f 11/35/79 10/38/80 36/11/81 35/62/82
s 8
f 10/38/83 13/37/84 37/12/85 36/11/86
s 10
f 12/39/87 11/35/79 35/62/82 39/53/88
s 8
f 13/37/84 7/32/77 33/61/78 37/12/85
s 9
f 17/41/89 16/44/90 42/17/91 41/58/92
s 11
f 16/44/93 18/43/94 43/18/95 42/17/96
s 9
f 3/30/75 17/41/89 41/58/92 30/5/76
s 11
f 18/43/94 20/46/97 45/20/98 43/18/95
f 24/49/99 22/48/100 50/25/101 49/51/102
s 10
f 22/48/103 23/47/104 47/22/105 50/25/106
f 23/47/104 12/83/87 39/84/88 47/22/105
s 11
f 20/46/97 24/49/99 49/51/102 45/20/98
g default
v 7.026623 9.862279 -0.220008
v 6.569763 10.049523 -0.220008
v 3.668318 10.050575 -0.220008
v 7.256003 9.464421 -0.220008
v 6.569763 9.464421 -0.220008
v 3.668208 9.465473 -0.220008
v 7.256003 5.050553 -0.220008
v 6.569763 5.050553 -0.220008
v 3.667376 5.051605 -0.220008
v 7.026623 0.238827 -0.220008
v 6.569763 0.051583 -0.220008
v 3.666434 0.052635 -0.220008
v 7.256003 0.636685 -0.220008
v 6.569763 0.636685 -0.220008
v 3.666544 0.637737 -0.220008
v 0.309942 9.865742 -0.220008
v 0.766872 10.052801 -0.220008
v 0.080412 9.467977 -0.220008
v 0.766652 9.467699 -0.220008
v 0.078748 5.054110 -0.220008
v 0.764988 5.053832 -0.220008
v 0.306316 0.242291 -0.220008
v 0.763104 0.054862 -0.220008
v 0.077085 0.640242 -0.220008
v 0.763325 0.639964 -0.220008
v 6.569763 10.049523 -0.048940
v 6.569763 9.464421 -0.048940
v 7.256003 9.464421 -0.048940
v 7.026623 9.862279 -0.048940
v 3.668318 10.050575 -0.048940
v 3.668208 9.465473 -0.048940
v 6.569763 5.050553 -0.048940
v 7.256003 5.050553 -0.048940
v 3.667376 5.051605 -0.048940
v 6.569763 0.051583 -0.048940
v 7.026623 0.238827 -0.048940
v 7.256003 0.636685 -0.048940
v 6.569763 0.636685 -0.048940
v 3.666434 0.052635 -0.048940
v 3.666544 0.637737 -0.048940
v 0.766872 10.052801 -0.048940
v 0.309942 9.865742 -0.048940
v 0.080412 9.467977 -0.048940
v 0.766652 9.467699 -0.048940
v 0.078748 5.054110 -0.048940
v 0.764988 5.053832 -0.048940
v 0.763104 0.054862 -0.048940
v 0.763325 0.639964 -0.048940
v 0.077085 0.640242 -0.048940
v 0.306316 0.242291 -0.048940
vt 0.078609 0.589673
vt 0.467556 0.874201
vt 0.504382 0.874095
vt 0.078858 0.603209
vt 0.077147 0.510125
vt 0.311816 0.874664
vt 0.466939 0.637289
vt 0.503764 0.637194
vt 0.311159 0.637755
vt 0.466220 0.368973
vt 0.083770 0.870417
vt 0.083538 0.857826
vt 0.466322 0.400378
vt 0.310401 0.369441
vt 0.310482 0.400844
vt 0.156174 0.906592
vt 0.075436 0.417041
vt 0.075204 0.404450
vt 0.156073 0.875187
vt 0.072980 0.283437
vt 0.155375 0.638285
vt 0.070276 0.136296
vt 0.154658 0.401372
vt 0.117831 0.401487
vt 0.070524 0.149833
vt 0.073919 0.589759
vt 0.074168 0.603295
vt 0.074399 0.615886
vt 0.603509 0.866607
vt 0.072457 0.510211
vt 0.758728 0.867141
vt 0.076624 0.736899
vt 0.604229 0.630484
vt 0.759494 0.631018
vt 0.079328 0.884040
vt 0.604958 0.394348
vt 0.078848 0.857913
vt 0.079080 0.870503
vt 0.080792 0.963639
vt 0.760257 0.394889
vt 0.070995 0.430664
vt 0.913959 0.867730
vt 0.070514 0.404536
vt 0.070746 0.417127
vt 0.914781 0.631595
vt 0.068290 0.283523
vt 0.065585 0.136382
vt 0.065834 0.149919
vt 0.066066 0.162510
vt 0.915580 0.395479
vt 0.070756 0.162424
vt 0.118529 0.638389
vt 0.085482 0.963553
vt 0.154557 0.369966
vt 0.130068 0.380094
vt 0.119246 0.875302
vt 0.311898 0.906068
vt 0.075685 0.430577
vt 0.131621 0.896620
vt 0.503147 0.400282
vt 0.081314 0.736813
vt 0.084019 0.883954
vt 0.490773 0.378959
vt 0.079089 0.615800
vt 0.467637 0.905605
vt 0.492126 0.895492
vt 0.952282 0.395609
vt 0.951488 0.631738
vt 0.760362 0.363586
vt 0.915685 0.364176
vt 0.940095 0.374276
vt 0.950660 0.867861
vt 0.758638 0.898443
vt 0.913857 0.899039
vt 0.938334 0.889096
vt 0.568250 0.394236
vt 0.567521 0.630372
vt 0.605050 0.363052
vt 0.580585 0.372988
vt 0.566801 0.866495
vt 0.603420 0.897910
vt 0.578998 0.887816
vt 0.064122 0.056783
vt 0.068812 0.056697
vn -0.000000 -0.000001 1.000000
vn -0.000000 -0.000000 1.000000
vn -0.000000 -0.000000 1.000000
vn -0.000000 -0.000000 1.000000
vn -0.000000 -0.000001 1.000000
vn -0.000000 -0.000000 1.000000
vn -0.000000 0.000000 1.000000
vn -0.000000 0.000000 1.000000
vn 0.000000 0.000000 1.000000
vn -0.000000 0.000000 1.000000
vn -0.000000 0.000000 1.000000
vn -0.000000 0.000000 1.000000
vn -0.000000 0.000000 1.000000
vn 0.000000 0.000000 1.000000
vn 0.000000 0.000000 1.000000
vn -0.000000 0.000000 1.000000
vn -0.000000 0.000000 1.000000
vn 0.000000 0.000000 1.000000
vn 0.000000 -0.000000 1.000000
vn 0.000000 0.000000 1.000000
vn 0.000000 -0.000000 1.000000
vn 0.000000 -0.000000 1.000000
vn -0.000000 -0.000000 1.000000
vn -0.000000 -0.000000 1.000000
vn 0.000000 -0.000000 1.000000
vn 0.000000 0.000000 1.000000
vn 0.000000 0.000000 1.000000
vn 0.000000 0.000000 1.000000
vn 0.000000 0.000000 1.000000
vn 0.000000 0.000000 1.000000
vn 0.000000 0.000001 1.000000
vn 0.000000 0.000000 1.000000
vn 0.000000 0.000000 1.000000
vn 0.000000 -0.000000 -1.000000
vn 0.000000 -0.000000 -1.000000
vn 0.000000 -0.000000 -1.000000
vn 0.000000 -0.000000 -1.000000
vn 0.000000 -0.000000 -1.000000
vn 0.000000 -0.000000 -1.000000
vn 0.000000 -0.000000 -1.000000
vn 0.000000 -0.000000 -1.000000
vn 0.000000 -0.000000 -1.000000
vn 0.000000 -0.000000 -1.000000
vn 0.000000 -0.000000 -1.000000
vn 0.000000 -0.000000 -1.000000
vn 0.000000 -0.000000 -1.000000
vn 0.000000 -0.000000 -1.000000
vn 0.000000 -0.000000 -1.000000
vn 0.000000 -0.000000 -1.000000
vn 0.000000 -0.000000 -1.000000
vn 0.000000 -0.000000 -1.000000
vn 0.000000 -0.000000 -1.000000
vn 0.000000 -0.000000 -1.000000
vn 0.000000 -0.000000 -1.000000
vn 0.000000 -0.000000 -1.000000
vn 0.000000 -0.000000 -1.000000
vn 0.000000 -0.000000 -1.000000
vn 0.000000 0.000000 -1.000000
vn 0.000000 -0.000000 -1.000000
vn 0.000000 0.000000 -1.000000
vn 0.000000 0.000000 -1.000000
vn 0.000000 -0.000000 -1.000000
vn 0.000000 -0.000000 -1.000000
vn 0.000000 0.000000 -1.000000
vn 0.000000 0.000000 -1.000000
vn 0.000000 0.000000 -1.000000
vn 0.998866 0.047617 0.000000
vn 0.866329 0.499473 0.000000
vn 0.866329 0.499473 0.000000
vn 0.998866 0.047617 0.000000
vn 0.379235 0.925300 0.000000
vn 0.055981 0.998432 0.000000
vn 0.055981 0.998432 0.000000
vn 0.379235 0.925300 0.000000
vn 0.000565 1.000000 0.000000
vn 0.000565 1.000000 0.000000
vn 1.000000 0.000000 0.000000
vn 1.000000 0.000000 0.000000
vn 0.055326 -0.998468 0.000000
vn 0.379235 -0.925300 0.000000
vn 0.379235 -0.925300 0.000000
vn 0.055326 -0.998468 0.000000
vn 0.866330 -0.499473 0.000000
vn 0.998866 -0.047617 0.000000
vn 0.998866 -0.047617 0.000000
vn 0.866330 -0.499473 0.000000
vn -0.000565 -1.000000 0.000000
vn -0.000565 -1.000000 0.000000
vn -0.054954 0.998489 0.000000
vn -0.378865 0.925452 0.000000
vn -0.378865 0.925452 0.000000
vn -0.054954 0.998489 0.000000
vn -0.866137 0.499806 0.000000
vn -0.998848 0.047994 0.000000
vn -0.998848 0.047994 0.000000
vn -0.866137 0.499806 0.000000
vn -1.000000 0.000377 0.000000
vn -1.000000 0.000377 0.000000
vn -0.998884 -0.047241 0.000000
vn -0.866521 -0.499140 0.000000
vn -0.866521 -0.499140 0.000000
vn -0.998884 -0.047241 0.000000
vn -0.379607 -0.925148 0.000000
vn -0.056354 -0.998411 0.000000
vn -0.056354 -0.998411 0.000000
vn -0.379607 -0.925148 0.000000
s 1
g pPlane11
usemtl lambert3SG
f 76/149/107 77/86/108 78/87/109 79/150/110
f 80/141/111 81/90/112 77/86/108 76/149/107
f 78/87/109 77/86/108 82/91/113 83/92/114
f 77/86/108 81/90/112 84/93/115 82/91/113
s 2
f 85/94/116 86/147/117 87/144/118 88/97/119
f 89/98/120 85/94/116 88/97/119 90/99/121
f 87/144/118 83/92/122 82/91/123 88/97/119
f 88/97/119 82/91/123 84/93/124 90/99/121
s 3
f 91/100/125 92/143/126 93/140/127 94/103/128
f 80/141/129 91/100/125 94/103/128 81/90/130
f 93/140/127 95/136/131 96/105/132 94/103/128
f 94/103/128 96/105/132 84/93/133 81/90/130
f 97/138/134 98/107/135 99/108/136 100/139/137
f 89/98/138 90/99/139 98/107/135 97/138/134
f 99/108/136 98/107/135 96/105/132 95/136/131
f 98/107/135 90/99/139 84/93/133 96/105/132
s 5
f 52/165/140 51/166/141 54/164/142 55/113/143
f 53/157/144 52/165/140 55/113/143 56/115/145
f 54/164/142 57/161/146 58/117/147 55/113/143
f 55/113/143 58/117/147 59/118/148 56/115/145
s 6
f 61/162/149 64/120/150 63/160/151 60/163/152
f 62/153/153 65/124/154 64/120/150 61/162/149
f 63/160/151 64/120/150 58/117/155 57/161/156
f 64/120/150 65/124/154 59/118/157 58/117/155
s 7
f 67/158/158 69/126/159 68/156/160 66/159/161
f 53/157/162 56/115/163 69/126/159 67/158/158
f 68/156/160 69/126/159 71/129/164 70/152/165
f 69/126/159 56/115/163 59/118/166 71/129/164
f 73/154/167 72/155/168 74/151/169 75/134/170
f 62/153/171 73/154/167 75/134/170 65/124/172
f 74/151/169 70/152/165 71/129/164 75/134/170
f 75/134/170 71/129/164 59/118/166 65/124/172
s 8
f 54/112/173 51/111/174 79/88/175 78/148/176
s 9
f 51/111/177 52/110/178 76/85/179 79/88/180
f 52/110/178 53/114/181 80/89/182 76/85/179
s 8
f 57/116/183 54/112/173 78/148/176 83/145/184
s 10
f 61/119/185 60/122/186 86/95/187 85/146/188
s 8
f 60/122/189 63/121/190 87/96/191 86/95/192
s 10
f 62/123/193 61/119/185 85/146/188 89/137/194
s 8
f 63/121/190 57/116/183 83/145/184 87/96/191
s 9
f 67/125/195 66/128/196 92/101/197 91/142/198
s 11
f 66/128/199 68/127/200 93/102/201 92/101/202
s 9
f 53/114/181 67/125/195 91/142/198 80/89/182
s 11
f 68/127/200 70/130/203 95/104/204 93/102/201
f 74/133/205 72/132/206 100/109/207 99/135/208
s 10
f 72/132/209 73/131/210 97/106/211 100/109/212
f 73/131/210 62/167/193 89/168/194 97/106/211
s 11
f 70/130/203 74/133/205 99/135/208 95/104/204
g default
v -1.050236 9.862279 -0.220008
v -1.507096 10.049523 -0.220008
v -4.408541 10.050575 -0.220008
v -0.820856 9.464421 -0.220008
v -1.507096 9.464421 -0.220008
v -4.408652 9.465473 -0.220008
v -0.820856 5.050553 -0.220008
v -1.507096 5.050553 -0.220008
v -4.409483 5.051605 -0.220008
v -1.050236 0.238827 -0.220008
v -1.507096 0.051583 -0.220008
v -4.410425 0.052635 -0.220008
v -0.820856 0.636685 -0.220008
v -1.507096 0.636685 -0.220008
v -4.410315 0.637737 -0.220008
v -7.766917 9.865742 -0.220008
v -7.309988 10.052801 -0.220008
v -7.996448 9.467977 -0.220008
v -7.310208 9.467699 -0.220008
v -7.998111 5.054110 -0.220008
v -7.311871 5.053832 -0.220008
v -7.770544 0.242291 -0.220008
v -7.313755 0.054862 -0.220008
v -7.999774 0.640242 -0.220008
v -7.313535 0.639964 -0.220008
v -1.507096 10.049523 -0.048940
v -1.507096 9.464421 -0.048940
v -0.820856 9.464421 -0.048940
v -1.050236 9.862279 -0.048940
v -4.408541 10.050575 -0.048940
v -4.408652 9.465473 -0.048940
v -1.507096 5.050553 -0.048940
v -0.820856 5.050553 -0.048940
v -4.409483 5.051605 -0.048940
v -1.507096 0.051583 -0.048940
v -1.050236 0.238827 -0.048940
v -0.820856 0.636685 -0.048940
v -1.507096 0.636685 -0.048940
v -4.410425 0.052635 -0.048940
v -4.410315 0.637737 -0.048940
v -7.309988 10.052801 -0.048940
v -7.766917 9.865742 -0.048940
v -7.996448 9.467977 -0.048940
v -7.310208 9.467699 -0.048940
v -7.998111 5.054110 -0.048940
v -7.311871 5.053832 -0.048940
v -7.313755 0.054862 -0.048940
v -7.313535 0.639964 -0.048940
v -7.999774 0.640242 -0.048940
v -7.770544 0.242291 -0.048940
vt 0.078609 0.589673
vt 0.467556 0.874201
vt 0.504382 0.874095
vt 0.078858 0.603209
vt 0.077147 0.510125
vt 0.311816 0.874664
vt 0.466939 0.637289
vt 0.503764 0.637194
vt 0.311159 0.637755
vt 0.466220 0.368973
vt 0.083770 0.870417
vt 0.083538 0.857826
vt 0.466322 0.400378
vt 0.310401 0.369441
vt 0.310482 0.400844
vt 0.156174 0.906592
vt 0.075436 0.417041
vt 0.075204 0.404450
vt 0.156073 0.875187
vt 0.072980 0.283437
vt 0.155375 0.638285
vt 0.070276 0.136296
vt 0.154658 0.401372
vt 0.117831 0.401487
vt 0.070524 0.149833
vt 0.073919 0.589759
vt 0.074168 0.603295
vt 0.074399 0.615886
vt 0.603509 0.866607
vt 0.072457 0.510211
vt 0.758728 0.867141
vt 0.076624 0.736899
vt 0.604229 0.630484
vt 0.759494 0.631018
vt 0.079328 0.884040
vt 0.604958 0.394348
vt 0.078848 0.857913
vt 0.079080 0.870503
vt 0.080792 0.963639
vt 0.760257 0.394889
vt 0.070995 0.430664
vt 0.913959 0.867730
vt 0.070514 0.404536
vt 0.070746 0.417127
vt 0.914781 0.631595
vt 0.068290 0.283523
vt 0.065585 0.136382
vt 0.065834 0.149919
vt 0.066066 0.162510
vt 0.915580 0.395479
vt 0.070756 0.162424
vt 0.118529 0.638389
vt 0.085482 0.963553
vt 0.154557 0.369966
vt 0.130068 0.380094
vt 0.119246 0.875302
vt 0.311898 0.906068
vt 0.075685 0.430577
vt 0.131621 0.896620
vt 0.503147 0.400282
vt 0.081314 0.736813
vt 0.084019 0.883954
vt 0.490773 0.378959
vt 0.079089 0.615800
vt 0.467637 0.905605
vt 0.492126 0.895492
vt 0.952282 0.395609
vt 0.951488 0.631738
vt 0.760362 0.363586
vt 0.915685 0.364176
vt 0.940095 0.374276
vt 0.950660 0.867861
vt 0.758638 0.898443
vt 0.913857 0.899039
vt 0.938334 0.889096
vt 0.568250 0.394236
vt 0.567521 0.630372
vt 0.605050 0.363052
vt 0.580585 0.372988
vt 0.566801 0.866495
vt 0.603420 0.897910
vt 0.578998 0.887816
vt 0.064122 0.056783
vt 0.068812 0.056697
vn -0.000000 -0.000001 1.000000
vn -0.000000 -0.000000 1.000000
vn -0.000000 -0.000000 1.000000
vn -0.000000 -0.000000 1.000000
vn -0.000000 -0.000001 1.000000
vn -0.000000 -0.000000 1.000000
vn -0.000000 0.000000 1.000000
vn -0.000000 0.000000 1.000000
vn 0.000000 0.000000 1.000000
vn -0.000000 0.000000 1.000000
vn -0.000000 0.000000 1.000000
vn -0.000000 0.000000 1.000000
vn -0.000000 0.000000 1.000000
vn 0.000000 0.000000 1.000000
vn 0.000000 0.000000 1.000000
vn -0.000000 0.000000 1.000000
vn -0.000000 0.000000 1.000000
vn 0.000000 0.000000 1.000000
vn 0.000000 -0.000000 1.000000
vn 0.000000 0.000000 1.000000
vn 0.000000 -0.000000 1.000000
vn 0.000000 -0.000000 1.000000
vn -0.000000 -0.000000 1.000000
vn -0.000000 -0.000000 1.000000
vn 0.000000 -0.000000 1.000000
vn 0.000000 0.000000 1.000000
vn 0.000000 0.000000 1.000000
vn 0.000000 0.000000 1.000000
vn 0.000000 0.000000 1.000000
vn 0.000000 0.000000 1.000000
vn 0.000000 0.000001 1.000000
vn 0.000000 0.000000 1.000000
vn 0.000000 0.000000 1.000000
vn 0.000000 -0.000000 -1.000000
vn 0.000000 -0.000000 -1.000000
vn 0.000000 -0.000000 -1.000000
vn 0.000000 -0.000000 -1.000000
vn 0.000000 -0.000000 -1.000000
vn 0.000000 -0.000000 -1.000000
vn 0.000000 -0.000000 -1.000000
vn 0.000000 -0.000000 -1.000000
vn 0.000000 -0.000000 -1.000000
vn 0.000000 -0.000000 -1.000000
vn 0.000000 -0.000000 -1.000000
vn 0.000000 -0.000000 -1.000000
vn 0.000000 -0.000000 -1.000000
vn 0.000000 -0.000000 -1.000000
vn 0.000000 -0.000000 -1.000000
vn 0.000000 -0.000000 -1.000000
vn 0.000000 -0.000000 -1.000000
vn 0.000000 -0.000000 -1.000000
vn 0.000000 -0.000000 -1.000000
vn 0.000000 -0.000000 -1.000000
vn 0.000000 -0.000000 -1.000000
vn 0.000000 -0.000000 -1.000000
vn 0.000000 -0.000000 -1.000000
vn 0.000000 -0.000000 -1.000000
vn 0.000000 0.000000 -1.000000
vn 0.000000 -0.000000 -1.000000
vn 0.000000 0.000000 -1.000000
vn 0.000000 0.000000 -1.000000
vn 0.000000 -0.000000 -1.000000
vn 0.000000 -0.000000 -1.000000
vn 0.000000 0.000000 -1.000000
vn 0.000000 0.000000 -1.000000
vn 0.000000 0.000000 -1.000000
vn 0.998866 0.047617 0.000000
vn 0.866329 0.499473 0.000000
vn 0.866329 0.499473 0.000000
vn 0.998866 0.047617 0.000000
vn 0.379235 0.925300 0.000000
vn 0.055981 0.998432 0.000000
vn 0.055981 0.998432 0.000000
vn 0.379235 0.925300 0.000000
vn 0.000565 1.000000 0.000000
vn 0.000565 1.000000 0.000000
vn 1.000000 0.000000 0.000000
vn 1.000000 0.000000 0.000000
vn 0.055326 -0.998468 0.000000
vn 0.379235 -0.925300 0.000000
vn 0.379235 -0.925300 0.000000
vn 0.055326 -0.998468 0.000000
vn 0.866330 -0.499473 0.000000
vn 0.998866 -0.047617 0.000000
vn 0.998866 -0.047617 0.000000
vn 0.866330 -0.499473 0.000000
vn -0.000565 -1.000000 0.000000
vn -0.000565 -1.000000 0.000000
vn -0.054954 0.998489 0.000000
vn -0.378865 0.925452 0.000000
vn -0.378865 0.925452 0.000000
vn -0.054954 0.998489 0.000000
vn -0.866137 0.499806 0.000000
vn -0.998848 0.047994 0.000000
vn -0.998848 0.047994 0.000000
vn -0.866137 0.499806 0.000000
vn -1.000000 0.000377 0.000000
vn -1.000000 0.000377 0.000000
vn -0.998884 -0.047241 0.000000
vn -0.866521 -0.499140 0.000000
vn -0.866521 -0.499140 0.000000
vn -0.998884 -0.047241 0.000000
vn -0.379607 -0.925148 0.000000
vn -0.056354 -0.998411 0.000000
vn -0.056354 -0.998411 0.000000
vn -0.379607 -0.925148 0.000000
s 1
g pPlane10
usemtl lambert2SG
f 126/233/213 127/170/214 128/171/215 129/234/216
f 130/225/217 131/174/218 127/170/214 126/233/213
f 128/171/215 127/170/214 132/175/219 133/176/220
f 127/170/214 131/174/218 134/177/221 132/175/219
s 2
f 135/178/222 136/231/223 137/228/224 138/181/225
f 139/182/226 135/178/222 138/181/225 140/183/227
f 137/228/224 133/176/228 132/175/229 138/181/225
f 138/181/225 132/175/229 134/177/230 140/183/227
s 3
f 141/184/231 142/227/232 143/224/233 144/187/234
f 130/225/235 141/184/231 144/187/234 131/174/236
f 143/224/233 145/220/237 146/189/238 144/187/234
f 144/187/234 146/189/238 134/177/239 131/174/236
f 147/222/240 148/191/241 149/192/242 150/223/243
f 139/182/244 140/183/245 148/191/241 147/222/240
f 149/192/242 148/191/241 146/189/238 145/220/237
f 148/191/241 140/183/245 134/177/239 146/189/238
s 5
f 102/249/246 101/250/247 104/248/248 105/197/249
f 103/241/250 102/249/246 105/197/249 106/199/251
f 104/248/248 107/245/252 108/201/253 105/197/249
f 105/197/249 108/201/253 109/202/254 106/199/251
s 6
f 111/246/255 114/204/256 113/244/257 110/247/258
f 112/237/259 115/208/260 114/204/256 111/246/255
f 113/244/257 114/204/256 108/201/261 107/245/262
f 114/204/256 115/208/260 109/202/263 108/201/261
s 7
f 117/242/264 119/210/265 118/240/266 116/243/267
f 103/241/268 106/199/269 119/210/265 117/242/264
f 118/240/266 119/210/265 121/213/270 120/236/271
f 119/210/265 106/199/269 109/202/272 121/213/270
f 123/238/273 122/239/274 124/235/275 125/218/276
f 112/237/277 123/238/273 125/218/276 115/208/278
f 124/235/275 120/236/271 121/213/270 125/218/276
f 125/218/276 121/213/270 109/202/272 115/208/278
s 8
f 104/196/279 101/195/280 129/172/281 128/232/282
s 9
f 101/195/283 102/194/284 126/169/285 129/172/286
f 102/194/284 103/198/287 130/173/288 126/169/285
s 8
f 107/200/289 104/196/279 128/232/282 133/229/290
s 10
f 111/203/291 110/206/292 136/179/293 135/230/294
s 8
f 110/206/295 113/205/296 137/180/297 136/179/298
s 10
f 112/207/299 111/203/291 135/230/294 139/221/300
s 8
f 113/205/296 107/200/289 133/229/290 137/180/297
s 9
f 117/209/301 116/212/302 142/185/303 141/226/304
s 11
f 116/212/305 118/211/306 143/186/307 142/185/308
s 9
f 103/198/287 117/209/301 141/226/304 130/173/288
s 11
f 118/211/306 120/214/309 145/188/310 143/186/307
f 124/217/311 122/216/312 150/193/313 149/219/314
s 10
f 122/216/315 123/215/316 147/190/317 150/193/318
f 123/215/316 112/251/299 139/252/300 147/190/317
s 11
f 120/214/309 124/217/311 149/219/314 145/188/310
g default
v -9.057416 9.862279 -0.220008
v -9.514275 10.049523 -0.220008
v -12.415721 10.050575 -0.220008
v -8.828035 9.464421 -0.220008
v -9.514275 9.464421 -0.220008
v -12.415831 9.465473 -0.220008
v -8.828035 5.050553 -0.220008
v -9.514275 5.050553 -0.220008
v -12.416663 5.051605 -0.220008
v -9.057416 0.238827 -0.220008
v -9.514275 0.051583 -0.220008
v -12.417605 0.052635 -0.220008
v -8.828035 0.636685 -0.220008
v -9.514275 0.636685 -0.220008
v -12.417494 0.637737 -0.220008
v -15.774097 9.865742 -0.220008
v -15.317167 10.052801 -0.220008
v -16.003627 9.467977 -0.220008
v -15.317387 9.467699 -0.220008
v -16.005290 5.054110 -0.220008
v -15.319051 5.053832 -0.220008
v -15.777723 0.242291 -0.220008
v -15.320935 0.054862 -0.220008
v -16.006954 0.640242 -0.220008
v -15.320714 0.639964 -0.220008
v -9.514275 10.049523 -0.048940
v -9.514275 9.464421 -0.048940
v -8.828035 9.464421 -0.048940
v -9.057416 9.862279 -0.048940
v -12.415721 10.050575 -0.048940
v -12.415831 9.465473 -0.048940
v -9.514275 5.050553 -0.048940
v -8.828035 5.050553 -0.048940
v -12.416663 5.051605 -0.048940
v -9.514275 0.051583 -0.048940
v -9.057416 0.238827 -0.048940
v -8.828035 0.636685 -0.048940
v -9.514275 0.636685 -0.048940
v -12.417605 0.052635 -0.048940
v -12.417494 0.637737 -0.048940
v -15.317167 10.052801 -0.048940
v -15.774097 9.865742 -0.048940
v -16.003627 9.467977 -0.048940
v -15.317387 9.467699 -0.048940
v -16.005290 5.054110 -0.048940
v -15.319051 5.053832 -0.048940
v -15.320935 0.054862 -0.048940
v -15.320714 0.639964 -0.048940
v -16.006954 0.640242 -0.048940
v -15.777723 0.242291 -0.048940
vt 0.078609 0.589673
vt 0.467556 0.874201
vt 0.504382 0.874095
vt 0.078858 0.603209
vt 0.077147 0.510125
vt 0.311816 0.874664
vt 0.466939 0.637289
vt 0.503764 0.637194
vt 0.311159 0.637755
vt 0.466220 0.368973
vt 0.083770 0.870417
vt 0.083538 0.857826
vt 0.466322 0.400378
vt 0.310401 0.369441
vt 0.310482 0.400844
vt 0.156174 0.906592
vt 0.075436 0.417041
vt 0.075204 0.404450
vt 0.156073 0.875187
vt 0.072980 0.283437
vt 0.155375 0.638285
vt 0.070276 0.136296
vt 0.154658 0.401372
vt 0.117831 0.401487
vt 0.070524 0.149833
vt 0.073919 0.589759
vt 0.074168 0.603295
vt 0.074399 0.615886
vt 0.603509 0.866607
vt 0.072457 0.510211
vt 0.758728 0.867141
vt 0.076624 0.736899
vt 0.604229 0.630484
vt 0.759494 0.631018
vt 0.079328 0.884040
vt 0.604958 0.394348
vt 0.078848 0.857913
vt 0.079080 0.870503
vt 0.080792 0.963639
vt 0.760257 0.394889
vt 0.070995 0.430664
vt 0.913959 0.867730
vt 0.070514 0.404536
vt 0.070746 0.417127
vt 0.914781 0.631595
vt 0.068290 0.283523
vt 0.065585 0.136382
vt 0.065834 0.149919
vt 0.066066 0.162510
vt 0.915580 0.395479
vt 0.070756 0.162424
vt 0.118529 0.638389
vt 0.085482 0.963553
vt 0.154557 0.369966
vt 0.130068 0.380094
vt 0.119246 0.875302
vt 0.311898 0.906068
vt 0.075685 0.430577
vt 0.131621 0.896620
vt 0.503147 0.400282
vt 0.081314 0.736813
vt 0.084019 0.883954
vt 0.490773 0.378959
vt 0.079089 0.615800
vt 0.467637 0.905605
vt 0.492126 0.895492
vt 0.952282 0.395609
vt 0.951488 0.631738
vt 0.760362 0.363586
vt 0.915685 0.364176
vt 0.940095 0.374276
vt 0.950660 0.867861
vt 0.758638 0.898443
vt 0.913857 0.899039
vt 0.938334 0.889096
vt 0.568250 0.394236
vt 0.567521 0.630372
vt 0.605050 0.363052
vt 0.580585 0.372988
vt 0.566801 0.866495
vt 0.603420 0.897910
vt 0.578998 0.887816
vt 0.064122 0.056783
vt 0.068812 0.056697
vn -0.000000 -0.000001 1.000000
vn -0.000000 -0.000000 1.000000
vn -0.000000 -0.000000 1.000000
vn -0.000000 -0.000000 1.000000
vn -0.000000 -0.000001 1.000000
vn -0.000000 -0.000000 1.000000
vn -0.000000 0.000000 1.000000
vn -0.000000 0.000000 1.000000
vn 0.000000 0.000000 1.000000
vn -0.000000 0.000000 1.000000
vn -0.000000 0.000000 1.000000
vn -0.000000 0.000000 1.000000
vn -0.000000 0.000000 1.000000
vn 0.000000 0.000000 1.000000
vn 0.000000 0.000000 1.000000
vn -0.000000 0.000000 1.000000
vn -0.000000 0.000000 1.000000
vn 0.000000 0.000000 1.000000
vn 0.000000 -0.000000 1.000000
vn 0.000000 0.000000 1.000000
vn 0.000000 -0.000000 1.000000
vn 0.000000 -0.000000 1.000000
vn -0.000000 -0.000000 1.000000
vn -0.000000 -0.000000 1.000000
vn 0.000000 -0.000000 1.000000
vn 0.000000 0.000000 1.000000
vn 0.000000 0.000000 1.000000
vn 0.000000 0.000000 1.000000
vn 0.000000 0.000000 1.000000
vn 0.000000 0.000000 1.000000
vn 0.000000 0.000001 1.000000
vn 0.000000 0.000000 1.000000
vn 0.000000 0.000000 1.000000
vn 0.000000 -0.000000 -1.000000
vn 0.000000 -0.000000 -1.000000
vn 0.000000 -0.000000 -1.000000
vn 0.000000 -0.000000 -1.000000
vn 0.000000 -0.000000 -1.000000
vn 0.000000 -0.000000 -1.000000
vn 0.000000 -0.000000 -1.000000
vn 0.000000 -0.000000 -1.000000
vn 0.000000 -0.000000 -1.000000
vn 0.000000 -0.000000 -1.000000
vn 0.000000 -0.000000 -1.000000
vn 0.000000 -0.000000 -1.000000
vn 0.000000 -0.000000 -1.000000
vn 0.000000 -0.000000 -1.000000
vn 0.000000 -0.000000 -1.000000
vn 0.000000 -0.000000 -1.000000
vn 0.000000 -0.000000 -1.000000
vn 0.000000 -0.000000 -1.000000
vn 0.000000 -0.000000 -1.000000
vn 0.000000 -0.000000 -1.000000
vn 0.000000 -0.000000 -1.000000
vn 0.000000 -0.000000 -1.000000
vn 0.000000 -0.000000 -1.000000
vn 0.000000 -0.000000 -1.000000
vn 0.000000 0.000000 -1.000000
vn 0.000000 -0.000000 -1.000000
vn 0.000000 0.000000 -1.000000
vn 0.000000 0.000000 -1.000000
vn 0.000000 -0.000000 -1.000000
vn 0.000000 -0.000000 -1.000000
vn 0.000000 0.000000 -1.000000
vn 0.000000 0.000000 -1.000000
vn 0.000000 0.000000 -1.000000
vn 0.998866 0.047617 0.000000
vn 0.866329 0.499473 0.000000
vn 0.866329 0.499473 0.000000
vn 0.998866 0.047617 0.000000
vn 0.379235 0.925300 0.000000
vn 0.055981 0.998432 0.000000
vn 0.055981 0.998432 0.000000
vn 0.379235 0.925300 0.000000
vn 0.000565 1.000000 0.000000
vn 0.000565 1.000000 0.000000
vn 1.000000 0.000000 0.000000
vn 1.000000 0.000000 0.000000
vn 0.055326 -0.998468 0.000000
vn 0.379235 -0.925300 0.000000
vn 0.379235 -0.925300 0.000000
vn 0.055326 -0.998468 0.000000
vn 0.866330 -0.499473 0.000000
vn 0.998866 -0.047617 0.000000
vn 0.998866 -0.047617 0.000000
vn 0.866330 -0.499473 0.000000
vn -0.000565 -1.000000 0.000000
vn -0.000565 -1.000000 0.000000
vn -0.054954 0.998489 0.000000
vn -0.378865 0.925452 0.000000
vn -0.378865 0.925452 0.000000
vn -0.054954 0.998489 0.000000
vn -0.866137 0.499806 0.000000
vn -0.998848 0.047994 0.000000
vn -0.998848 0.047994 0.000000
vn -0.866137 0.499806 0.000000
vn -1.000000 0.000377 0.000000
vn -1.000000 0.000377 0.000000
vn -0.998884 -0.047241 0.000000
vn -0.866521 -0.499140 0.000000
vn -0.866521 -0.499140 0.000000
vn -0.998884 -0.047241 0.000000
vn -0.379607 -0.925148 0.000000
vn -0.056354 -0.998411 0.000000
vn -0.056354 -0.998411 0.000000
vn -0.379607 -0.925148 0.000000
s 1
g pPlane9
usemtl initialShadingGroup
f 176/317/319 177/254/320 178/255/321 179/318/322
f 180/309/323 181/258/324 177/254/320 176/317/319
f 178/255/321 177/254/320 182/259/325 183/260/326
f 177/254/320 181/258/324 184/261/327 182/259/325
s 2
f 185/262/328 186/315/329 187/312/330 188/265/331
f 189/266/332 185/262/328 188/265/331 190/267/333
f 187/312/330 183/260/334 182/259/335 188/265/331
f 188/265/331 182/259/335 184/261/336 190/267/333
s 3
f 191/268/337 192/311/338 193/308/339 194/271/340
f 180/309/341 191/268/337 194/271/340 181/258/342
f 193/308/339 195/304/343 196/273/344 194/271/340
f 194/271/340 196/273/344 184/261/345 181/258/342
f 197/306/346 198/275/347 199/276/348 200/307/349
f 189/266/350 190/267/351 198/275/347 197/306/346
f 199/276/348 198/275/347 196/273/344 195/304/343
f 198/275/347 190/267/351 184/261/345 196/273/344
s 5
f 152/333/352 151/334/353 154/332/354 155/281/355
f 153/325/356 152/333/352 155/281/355 156/283/357
f 154/332/354 157/329/358 158/285/359 155/281/355
f 155/281/355 158/285/359 159/286/360 156/283/357
s 6
f 161/330/361 164/288/362 163/328/363 160/331/364
f 162/321/365 165/292/366 164/288/362 161/330/361
f 163/328/363 164/288/362 158/285/367 157/329/368
f 164/288/362 165/292/366 159/286/369 158/285/367
s 7
f 167/326/370 169/294/371 168/324/372 166/327/373
f 153/325/374 156/283/375 169/294/371 167/326/370
f 168/324/372 169/294/371 171/297/376 170/320/377
f 169/294/371 156/283/375 159/286/378 171/297/376
f 173/322/379 172/323/380 174/319/381 175/302/382
f 162/321/383 173/322/379 175/302/382 165/292/384
f 174/319/381 170/320/377 171/297/376 175/302/382
f 175/302/382 171/297/376 159/286/378 165/292/384
s 8
f 154/280/385 151/279/386 179/256/387 178/316/388
s 9
f 151/279/389 152/278/390 176/253/391 179/256/392
f 152/278/390 153/282/393 180/257/394 176/253/391
s 8
f 157/284/395 154/280/385 178/316/388 183/313/396
s 10
f 161/287/397 160/290/398 186/263/399 185/314/400
s 8
f 160/290/401 163/289/402 187/264/403 186/263/404
s 10
f 162/291/405 161/287/397 185/314/400 189/305/406
s 8
f 163/289/402 157/284/395 183/313/396 187/264/403
s 9
f 167/293/407 166/296/408 192/269/409 191/310/410
s 11
f 166/296/411 168/295/412 193/270/413 192/269/414
s 9
f 153/282/393 167/293/407 191/310/410 180/257/394
s 11
f 168/295/412 170/298/415 195/272/416 193/270/413
f 174/301/417 172/300/418 200/277/419 199/303/420
s 10
f 172/300/421 173/299/422 197/274/423 200/277/424
f 173/299/422 162/335/405 189/336/406 197/274/423
s 11
f 170/298/415 174/301/417 199/303/420 195/272/416
